# xmcd CD database file
#
# Track frame offsets:
#	150
#	15302
#	34590
#	62785
#	74612
#	97020
#	118272
#	136580
#	148257
#	170367
#	199595
#	212707
#	221002
#
# Disc length: 3855 seconds
#
# Revision: 3
# Processed by: cddbd v1.5.2PL0 Copyright (c) Steve Scherf et al.
# Submitted via: CDex 1.51
#
DISCID=c30f0d0d
DTITLE=Rachmaninoff - Aleko  [Opera in on act]  (Roman Kofman, Donetsk Philharmonic Orchestra)
DYEAR=2008
DGENRE=Classique
TTITLE0=Aleko - Introduction
TTITLE1=Aleko - Chorus
TTITLE2=Aleko - Story of the Old Gipsy
TTITLE3=Aleko - Scene and Chorus
TTITLE4=Aleko - Women's Dance
TTITLE5=Aleko - Men's Dance
TTITLE6=Aleko - Chorus
TTITLE7=Aleko - Duettino
TTITLE8=Aleko - Scene at the Cradle
TTITLE9=Aleko - Aleko's Cavatina
TTITLE10=Aleko - Intermezzo
TTITLE11=Aleko - Romance of the Young Gipsy
TTITLE12=Aleko - Duet and Finale
EXTD=YEAR: 2008
EXTT0=
EXTT1=
EXTT2=
EXTT3=
EXTT4=
EXTT5=
EXTT6=
EXTT7=
EXTT8=
EXTT9=
EXTT10=
EXTT11=
EXTT12=
PLAYORDER=
